<svg xmlns="http://www.w3.org/2000/svg" width="31.417" height="41.555" viewBox="0 0 31.417 41.555">
  <g id="a-partir-de-que-edad" transform="translate(-2.5 0.5)">
    <path id="Trazado_24835" data-name="Trazado 24835" d="M28.77,38.486H7.647A4.651,4.651,0,0,1,3,33.839V7.647A4.651,4.651,0,0,1,7.647,3H10.6a1.267,1.267,0,0,1,0,2.535H7.647A2.115,2.115,0,0,0,5.535,7.647V33.839a2.115,2.115,0,0,0,2.112,2.112H28.77a2.115,2.115,0,0,0,2.112-2.112V7.647A2.115,2.115,0,0,0,28.77,5.535H25.812a1.267,1.267,0,0,1,0-2.535H28.77a4.651,4.651,0,0,1,4.647,4.647V33.839A4.651,4.651,0,0,1,28.77,38.486Z" transform="translate(0 2.069)" fill="#616161" stroke="#fff" stroke-width="1"/>
    <path id="Trazado_24836" data-name="Trazado 24836" d="M20.941,10.139H9.957A2.96,2.96,0,0,1,7,7.182V4.647A1.268,1.268,0,0,1,8.267,3.38h2.71a4.648,4.648,0,0,1,8.942,0h2.71A1.268,1.268,0,0,1,23.9,4.647V7.182A2.96,2.96,0,0,1,20.941,10.139ZM9.535,5.914V7.182a.423.423,0,0,0,.422.422H20.941a.423.423,0,0,0,.422-.422V5.914H18.829a1.268,1.268,0,0,1-1.267-1.267,2.112,2.112,0,1,0-4.225,0,1.268,1.268,0,0,1-1.267,1.267Z" transform="translate(2.759)" fill="#616161" stroke="#fff" stroke-width="1"/>
    <path id="Trazado_24837" data-name="Trazado 24837" d="M21.441,28.277a1.268,1.268,0,0,1-.725-.228c-2.131-1.487-4.012-2.871-5.615-4.2-1.585,1.313-3.456,2.694-5.605,4.2A1.268,1.268,0,0,1,8.039,25.97c1.783-1.25,3.56-2.531,5.147-3.827A14.215,14.215,0,0,1,9.17,16.362a6.583,6.583,0,0,1,3.52-7.783,5.348,5.348,0,0,1,4.841.005,6.584,6.584,0,0,1,3.515,7.787,14.116,14.116,0,0,1-4.018,5.772c1.482,1.213,3.214,2.481,5.14,3.826a1.268,1.268,0,0,1-.727,2.308ZM15.1,10.534a2.968,2.968,0,0,0-1.306.324A4.038,4.038,0,0,0,11.586,15.6,12.237,12.237,0,0,0,15.1,20.47a12.44,12.44,0,0,0,3.523-4.863,4.041,4.041,0,0,0-2.214-4.745A2.926,2.926,0,0,0,15.1,10.534Z" transform="translate(3.104 5.52)" fill="#fac2bf"/>
  </g>
</svg>
