<svg xmlns="http://www.w3.org/2000/svg" width="18.361" height="18.415" viewBox="0 0 18.361 18.415">
  <path id="clinica" d="M27.72,14.621H25.365V10.36A.363.363,0,0,0,25,10H13.2a.363.363,0,0,0-.363.36v4.26H10.48a.36.36,0,0,0-.36.36V27.654a.36.36,0,0,0,.36.36H27.72a.36.36,0,0,0,.36-.36V14.981A.36.36,0,0,0,27.72,14.621Zm-16.889.721h2V27.294H10.841Zm2.718-.36v-4.26H24.642V27.294H21.956V22.982a.358.358,0,0,0-.36-.36h-4.99a.358.358,0,0,0-.36.36v4.312H13.559Zm3.416,12.313V23.342h4.278v3.952Zm10.394,0h-2V15.341h2Zm-8.381-7.179a.405.405,0,0,0,.122.018.322.322,0,0,0,.131-.027c2.078-.858,3.472-2.506,3.472-4.1a2.2,2.2,0,0,0-2.1-2.491,1.871,1.871,0,0,0-1.5.707,1.88,1.88,0,0,0-1.5-.707c-1.04,0-2.09.77-2.09,2.493C15.515,17.609,16.907,19.257,18.979,20.115ZM17.628,14.2A1.216,1.216,0,0,1,18.774,15a.347.347,0,0,0,.428.225A.34.34,0,0,0,19.427,15a1.23,1.23,0,0,1,1.173-.82c.856,0,1.407.712,1.407,1.815,0,1.277-1.164,2.644-2.9,3.407-1.738-.763-2.9-2.135-2.9-3.414,0-1.09.554-1.8,1.423-1.795Z" transform="translate(-9.92 -9.8)" fill="#cf787d" stroke="#cf787d" stroke-width="0.4"/>
</svg>
