<svg xmlns="http://www.w3.org/2000/svg" width="30.492" height="106.994" viewBox="0 0 30.492 106.994">
  <g id="figura_humana" data-name="figura humana" transform="translate(0.518 0.5)">
    <path id="Forma_8" data-name="Forma 8" d="M34.9,55.464s-.557-1.516-.456-8.032-.506-7.729-.76-8.992-.658-5.557-.912-10.608-.81-5.052-1.468-6.264-5.722-2.374-6.431-2.677-1.57-.96-1.666-1.515,0-3.183,0-3.183a5.775,5.775,0,0,0,1.568-3.461c.5.034.555-.788.571-1.056A16.794,16.794,0,0,0,25.681,7.6c-.017-.6-.762-.391-.762-.391,0-4.754-2.467-5.226-4.191-5.226s-4.192.473-4.192,5.227c0,0-.745-.213-.762.391a16.807,16.807,0,0,0,.336,2.079c.017.268.067,1.09.571,1.056a5.776,5.776,0,0,0,1.568,3.461s.1,2.627,0,3.183-.957,1.212-1.666,1.515-5.773,1.464-6.432,2.676S8.938,22.78,8.685,27.832s-.658,9.344-.911,10.608-.861,2.475-.759,8.992-.456,8.032-.456,8.032-.912,4.546-.405,5.607,1.114,1.818,1.418,1.768.152-.606.152-.606,1.266.813,1.57.609.405-.053.658-.407-.2-.707-.2-.707a1.22,1.22,0,0,0,.506-.354c.2-.253-1.418-1.162-1.418-2.425a14.46,14.46,0,0,0-.152-4.143c-.405-1.466,1.823-5.658,2.178-10.1s-.1-4.4.253-5.86,1.874-6.668,1.874-8.436v-.2a9.6,9.6,0,0,0,1.063,3.233c.658.758,1.013,5.607.81,6.214s-3.9,8.84-3.849,14.246,2.471,15.508,2.351,17.276-.78,7.122-.83,11.467,3.28,14.236,3.179,18.733c-.011.481-.292,1.228-.345,1.673-.378,3.23-1.909,3.637-1.457,4.359.506.808.68.388,1.8.517a11.815,11.815,0,0,0,2.137,0c.962,0,1.456-1.1,1.157-2.128a25.253,25.253,0,0,1-.752-2.749,14.3,14.3,0,0,0,.1-1.673c-.142-1.041-.759-1.556-.506-3.224s-.3-2.98.405-7.425a35.367,35.367,0,0,0,.1-11.114c-.455-2.172.557-6.921.962-8.335S20.728,59.41,20.728,59.41s1,10.451,1.409,11.865,1.418,6.163.962,8.335a35.373,35.373,0,0,0,.1,11.114c.709,4.445.152,5.759.405,7.425a11.847,11.847,0,0,1-.171,3.386c-.009.692.188.85.171,1.783s-1.813,4.248-1.1,4.451a10.707,10.707,0,0,0,2.568.153c1.114-.03,1.628.142,2.207-.153.451-.719-.921-3.81-1.248-4.723-.024-.351.069-.866.058-1.36-.1-4.5,2.886-14.7,2.836-19.044s-.709-9.7-.83-11.467S30.391,59.3,30.442,53.9,26.8,40.259,26.593,39.652s.152-5.455.81-6.214a9.612,9.612,0,0,0,1.064-3.233v.2c0,1.768,1.519,6.971,1.874,8.436s-.1,1.415.253,5.86,2.583,8.638,2.178,10.1a14.468,14.468,0,0,0-.152,4.143c0,1.263-1.621,2.172-1.418,2.425a1.22,1.22,0,0,0,.506.354s-.456.354-.2.707.355.2.658.407,1.57-.609,1.57-.609-.152.556.152.606.911-.707,1.418-1.768S34.9,55.464,34.9,55.464Z" transform="translate(-5.999 -1.98)" fill="#ffe0df" stroke="#f0bdbc" stroke-width="1" fill-rule="evenodd"/>
  </g>
</svg>
