<svg xmlns="http://www.w3.org/2000/svg" width="24.642" height="37.527" viewBox="0 0 24.642 37.527">
  <g id="folio-en-celular" transform="translate(-17.854)">
    <g id="Grupo_8778" data-name="Grupo 8778" transform="translate(17.854)">
      <g id="Grupo_8777" data-name="Grupo 8777">
        <path id="Trazado_25336" data-name="Trazado 25336" d="M41.339,13h-.153V2.788A2.791,2.791,0,0,0,38.4,0H21.952a2.791,2.791,0,0,0-2.788,2.788V5.91h-.153a1.131,1.131,0,0,0-1.157,1.1V8.185a1.131,1.131,0,0,0,1.157,1.1h.153V9.5h-.153a1.131,1.131,0,0,0-1.157,1.1v1.175a1.131,1.131,0,0,0,1.157,1.1h.153V28.631h-.153a1.131,1.131,0,0,0-1.157,1.1v1.175a1.131,1.131,0,0,0,1.157,1.1h.153v2.734a2.791,2.791,0,0,0,2.788,2.788h2.31a.55.55,0,0,0,0-1.1h-2.31a1.69,1.69,0,0,1-1.688-1.688v-.576H40.086v.576A1.69,1.69,0,0,1,38.4,36.427H26.51a.55.55,0,0,0,0,1.1H38.4a2.791,2.791,0,0,0,2.788-2.788V24.531h.153a1.131,1.131,0,0,0,1.157-1.1V14.1A1.131,1.131,0,0,0,41.339,13ZM19.164,30.906h-.153a.1.1,0,0,1-.058-.017V29.747a.1.1,0,0,1,.058-.017h.153Zm0-19.129h-.153a.1.1,0,0,1-.058-.017V10.618a.1.1,0,0,1,.058-.017h.153Zm0-3.591h-.153a.1.1,0,0,1-.058-.017V7.026a.1.1,0,0,1,.058-.017h.153Zm1.1-5.4A1.69,1.69,0,0,1,21.952,1.1H38.4a1.69,1.69,0,0,1,1.688,1.688V3.982H20.264ZM40.086,6.677H35.635a.55.55,0,0,0,0,1.1h4.451V33.064H20.264V7.777H33.4a.55.55,0,1,0,0-1.1H20.264v-1.6H40.086v1.6ZM41.4,23.415a.1.1,0,0,1-.058.017h-.153V14.1h.153a.1.1,0,0,1,.058.017Z" transform="translate(-17.854)" fill="#95989a"/>
      </g>
    </g>
    <g id="Grupo_8780" data-name="Grupo 8780" transform="translate(28.759 2.053)">
      <g id="Grupo_8779" data-name="Grupo 8779" transform="translate(0)">
        <path id="Trazado_25337" data-name="Trazado 25337" d="M50.458,5.689h-1.83a.55.55,0,0,0,0,1.1h1.83a.55.55,0,0,0,0-1.1Z" transform="translate(-48.078 -5.689)" fill="#95989a"/>
      </g>
    </g>
    <g id="Grupo_8782" data-name="Grupo 8782" transform="translate(26.682 2.053)">
      <g id="Grupo_8781" data-name="Grupo 8781" transform="translate(0)">
        <path id="Trazado_25338" data-name="Trazado 25338" d="M42.945,5.689h-.074a.55.55,0,1,0,0,1.1h.074a.55.55,0,1,0,0-1.1Z" transform="translate(-42.321 -5.689)" fill="#95989a"/>
      </g>
    </g>
    <g id="Grupo_8784" data-name="Grupo 8784" transform="translate(28.759 34.647)">
      <g id="Grupo_8783" data-name="Grupo 8783" transform="translate(0)">
        <path id="Trazado_25339" data-name="Trazado 25339" d="M50.458,96.019h-1.83a.55.55,0,0,0,0,1.1h1.83a.55.55,0,0,0,0-1.1Z" transform="translate(-48.078 -96.019)" fill="#95989a"/>
      </g>
    </g>
    <g id="Grupo_8788" data-name="Grupo 8788" transform="translate(35.686 11.411)">
      <g id="Grupo_8787" data-name="Grupo 8787">
        <path id="Trazado_25341" data-name="Trazado 25341" d="M70.144,31.623H67.823a.55.55,0,1,0,0,1.1h1.771V34.67a.55.55,0,1,0,1.1,0v-2.5A.55.55,0,0,0,70.144,31.623Z" transform="translate(-67.273 -31.623)" fill="#95989a"/>
      </g>
    </g>
    <g id="Grupo_8790" data-name="Grupo 8790" transform="translate(21.243 11.411)">
      <g id="Grupo_8789" data-name="Grupo 8789" transform="translate(0)">
        <path id="Trazado_25342" data-name="Trazado 25342" d="M30.118,31.623H27.8a.55.55,0,0,0-.55.55v2.5a.55.55,0,0,0,1.1,0V32.722h1.771a.55.55,0,1,0,0-1.1Z" transform="translate(-27.248 -31.623)" fill="#95989a"/>
      </g>
    </g>
    <g id="Grupo_8792" data-name="Grupo 8792" transform="translate(21.243 25.44)">
      <g id="Grupo_8791" data-name="Grupo 8791" transform="translate(0)">
        <path id="Trazado_25343" data-name="Trazado 25343" d="M30.118,73H28.347V71.053a.55.55,0,0,0-1.1,0v2.5a.55.55,0,0,0,.55.55h2.321a.55.55,0,1,0,0-1.1Z" transform="translate(-27.248 -70.504)" fill="#95989a"/>
      </g>
    </g>
    <g id="Grupo_8794" data-name="Grupo 8794" transform="translate(35.686 25.44)">
      <g id="Grupo_8793" data-name="Grupo 8793">
        <path id="Trazado_25344" data-name="Trazado 25344" d="M70.144,70.5a.55.55,0,0,0-.55.55V73H67.823a.55.55,0,1,0,0,1.1h2.321a.55.55,0,0,0,.55-.55v-2.5A.55.55,0,0,0,70.144,70.5Z" transform="translate(-67.273 -70.504)" fill="#95989a"/>
      </g>
    </g>
    <g id="Rectángulo_5525" data-name="Rectángulo 5525" transform="translate(24.187 14.527)" fill="none" stroke="#95989a" stroke-linecap="round" stroke-linejoin="round" stroke-width="1" stroke-dasharray="1.1 2">
      <rect width="12" height="12" stroke="none"/>
      <rect x="0.5" y="0.5" width="11" height="11" fill="none"/>
    </g>
  </g>
</svg>
