<svg id="icono-en_lista-paciente-beneficiada" data-name="icono-en lista-paciente-beneficiada" xmlns="http://www.w3.org/2000/svg" width="32" height="32" viewBox="0 0 32 32">
  <path id="Trazado_16306" data-name="Trazado 16306" d="M16,0A16,16,0,1,1,0,16,16,16,0,0,1,16,0Z" fill="#fac2bf"/>
  <g id="agregar-usuario" transform="translate(-9.02 5.885)">
    <path id="Trazado_25175" data-name="Trazado 25175" d="M31.091,12.543a3.767,3.767,0,0,0-1.38.26l-1.294-.4a.624.624,0,0,0-.454.031l-.925-.293-.031-.008a.469.469,0,0,1-.375-.458v-.056l2.273-.591A1.692,1.692,0,0,0,30.17,9.388V5.09a5.1,5.1,0,0,0-.6-2.406.295.295,0,1,0-.519.279,4.509,4.509,0,0,1,.533,2.127v.535a3.127,3.127,0,0,1-.612-.219,2.511,2.511,0,0,1-.839-.637l-.008-.01q-.069-.083-.13-.172l-.021-.031L27.933,4.5l-.023-.039-.032-.055-.022-.041-.03-.059-.019-.039c-.011-.023-.021-.047-.032-.07l-.014-.031c-.015-.035-.029-.07-.042-.106a.295.295,0,0,0-.46-.127l-.014.011a11.99,11.99,0,0,1-4.15,2.016l-.1.022-.018,0a5.738,5.738,0,0,1-2.736-.025l-.059-.017-.1-.029-.115-.039-.051-.018c-.058-.021-.116-.043-.173-.066h0l0,0-.02-.008V5.09a4.506,4.506,0,0,1,4.5-4.5h.858a4.469,4.469,0,0,1,3.206,1.342.295.295,0,1,0,.42-.414A5.054,5.054,0,0,0,25.08,0h-.858a5.1,5.1,0,0,0-5.09,5.09V9.377a1.689,1.689,0,0,0,1.282,1.641l2.256.563v.091a.469.469,0,0,1-.375.458l-.031.008-1.058.335a.624.624,0,0,0-.454-.031l-1.995.622a3.794,3.794,0,0,0-1.355.722.295.295,0,0,0,.376.454,3.208,3.208,0,0,1,1.148-.611h0l2-.623a.036.036,0,0,1,.034.007h0v0a.027.027,0,0,1,.005.008,4.049,4.049,0,0,0,3.606,2.506A4.044,4.044,0,0,0,28.2,12.981h0l0-.007,0,0h0a.035.035,0,0,1,.034-.007l.733.229a3.782,3.782,0,0,0-.557,5.817H18.772V16.392a.295.295,0,1,0-.589,0v2.617H16.639a.03.03,0,0,1-.03-.03V16.726a3.241,3.241,0,0,1,.354-1.471.295.295,0,1,0-.524-.269,3.833,3.833,0,0,0-.419,1.74v2.253a.62.62,0,0,0,.619.619H29.181a3.786,3.786,0,1,0,1.909-7.055ZM29.12,7.681q0-.038.008-.077l0-.024,0-.025c0-.026,0-.052.006-.078,0-.01,0-.02,0-.03V7.429c0-.028,0-.056,0-.084,0-.011,0-.021,0-.032V7.3q0-.062,0-.124V6.17H29.2a.386.386,0,0,1,.386.386V7.31A.386.386,0,0,1,29.2,7.7h-.077Zm-.369,1.346.023-.053.028-.066.016-.04.034-.086.01-.025a4.457,4.457,0,0,0,.148-.472H29.2a.969.969,0,0,0,.386-.08V9.388a1.1,1.1,0,0,1-.825,1.067l-1.5.389a4.5,4.5,0,0,0,1.482-1.8Zm-9.03-2.472a.386.386,0,0,1,.012-.1v0l0-.008c0-.008,0-.015.007-.023q.2.072.41.127V7.18c0,.041,0,.083,0,.124v.008c0,.01,0,.021,0,.031,0,.029,0,.057,0,.086v.015c0,.01,0,.02,0,.029,0,.027,0,.054.006.081l0,.021,0,.023q0,.041.008.082V7.7h-.077a.386.386,0,0,1-.386-.386V6.556Zm.836,3.891a1.1,1.1,0,0,1-.836-1.069V8.205a.969.969,0,0,0,.386.08h.185a4.458,4.458,0,0,0,.142.457v0q.02.054.042.108l.014.035.03.071.023.052.021.046.033.07,0,0A4.5,4.5,0,0,0,21.986,10.8Zm.59-1.54-.024-.05-.023-.05c-.014-.031-.028-.062-.042-.094L21.051,8.7q-.025-.059-.048-.12L21,8.563a3.9,3.9,0,0,1-.228-.941l0-.024c0-.041-.008-.082-.011-.123V7.464c0-.041-.005-.081-.007-.122V7.309c0-.043,0-.086,0-.129V6.673a6.252,6.252,0,0,0,1.633.012l.043-.005.121-.016.093-.013.055-.009a9.122,9.122,0,0,0,1.87-.519l.039-.015.21-.085.075-.031.03-.013a13.319,13.319,0,0,0,2.41-1.357A2.959,2.959,0,0,0,28.556,5.86c0,.009,0,.018,0,.027h0c0,.037,0,.075,0,.112V7.181c0,.043,0,.086,0,.128v.033c0,.041,0,.081-.007.122v.014q0,.06-.011.119l0,.027a3.9,3.9,0,0,1-.228.939l-.007.018q-.023.06-.048.12l-.006.013c-.013.031-.027.063-.042.094l-.023.05-.024.05a3.907,3.907,0,0,1-7.009,0Zm3.429,6.031a3.442,3.442,0,0,1-2.981-1.97l.833-.264a1.06,1.06,0,0,0,.832-1.033v-.214l.051.016.02.006q.088.027.177.051l.033.009q.143.036.289.063l.058.01.088.014.115.016.065.007.106.01.042,0,.148.009.042,0c.052,0,.1,0,.157,0s.1,0,.157,0l.042,0L25,11.664l.042,0,.106-.01.065-.007.117-.016.087-.014.059-.01q.145-.027.288-.063l.033-.009q.089-.023.177-.05l.02-.006.051-.016v.214a1.06,1.06,0,0,0,.832,1.033l.7.222A3.439,3.439,0,0,1,24.576,14.938Zm6.515,4.589a3.2,3.2,0,1,1,3.2-3.2A3.2,3.2,0,0,1,31.091,19.527Z" transform="translate(0 0)" fill="#cf787d"/>
    <path id="Exclusión_5" data-name="Exclusión 5" d="M.39,4.054a.368.368,0,0,1-.214-.1.353.353,0,0,1-.148-.244.9.9,0,0,1,.288-.565,2.272,2.272,0,0,0,.44-.821C.684,2.259.055,1.7,0,1.226A1.223,1.223,0,0,1,.327.351.939.939,0,0,1,1.022,0h.014A1.376,1.376,0,0,1,2.062.393a.581.581,0,0,1,.123.483,4.306,4.306,0,0,1-.569,1.292,6.8,6.8,0,0,0,.784.744c.228.178.339.333.339.475a.377.377,0,0,1-.178.291.276.276,0,0,1-.168.068c-.127,0-.241-.125-.384-.283-.056-.062-.119-.132-.189-.2a7.607,7.607,0,0,1-.526-.569l0,.007c-.05.1-.192.381-.438.792l-.072.121C.613,3.9.521,4.054.39,4.054ZM1.019.447A.416.416,0,0,0,.655.626a.57.57,0,0,0-.049.5,2.91,2.91,0,0,0,.548.734,9.133,9.133,0,0,0,.4-.843A.424.424,0,0,0,1.5.666a.529.529,0,0,0-.43-.217Z" transform="matrix(0.996, 0.087, -0.087, 0.996, 30.153, 14.303)" fill="#cf787d"/>
  </g>
</svg>
