<svg xmlns="http://www.w3.org/2000/svg" width="37.08" height="30.59" viewBox="0 0 37.08 30.59">
  <g id="ingresar" transform="translate(-1339 -28)">
    <path id="Iconos_cintas_ingreso_Ingresar_correo" data-name="Iconos cintas ingreso_Ingresar correo" d="M46.3,17H15.668a.774.774,0,0,0-.774.774h0v4.139h-4.12a.774.774,0,0,0-.774.774h0v24.1a.774.774,0,0,0,.746.8H41.41a.774.774,0,0,0,.774-.774V42.677H46.3a.774.774,0,0,0,.774-.774h0V17.8a.774.774,0,0,0-.746-.8ZM16.442,22.233,27.436,30.9l-10.994,8.63ZM40.636,46.023H11.547V23.461h3.346V41.9a.774.774,0,0,0,.774.774H40.636ZM16.919,41.129l11.768-9.27L30.508,33.3a.742.742,0,0,0,.927,0l1.826-1.437,11.763,9.27ZM45.53,39.535,34.536,30.9,45.53,22.233Zm0-19.267L30.986,31.711,16.442,20.268v-1.7H45.53Z" transform="translate(1329.001 11)" fill="#fff"/>
    <path id="Exclusión_7" data-name="Exclusión 7" d="M.732,7.565a.692.692,0,0,1-.4-.191.658.658,0,0,1-.278-.456,1.671,1.671,0,0,1,.54-1.055,4.231,4.231,0,0,0,.826-1.532C1.283,4.215.1,3.178.008,2.288A2.274,2.274,0,0,1,.613.655,1.766,1.766,0,0,1,1.917,0h.025A2.59,2.59,0,0,1,3.868.733a1.08,1.08,0,0,1,.231.9,8.011,8.011,0,0,1-1.069,2.41A12.727,12.727,0,0,0,4.5,5.434c.428.332.636.622.636.887a.7.7,0,0,1-.334.543.519.519,0,0,1-.316.127c-.239,0-.451-.233-.72-.529-.106-.117-.224-.246-.355-.374a14.184,14.184,0,0,1-.987-1.062.062.062,0,0,1-.006.013c-.093.189-.36.711-.821,1.479l-.135.226C1.151,7.273.978,7.565.732,7.565ZM1.912.834a.782.782,0,0,0-.684.334,1.059,1.059,0,0,0-.093.936A5.43,5.43,0,0,0,2.164,3.473,16.982,16.982,0,0,0,2.91,1.9a.789.789,0,0,0-.1-.657A1,1,0,0,0,2,.837C1.972.835,1.942.834,1.912.834Z" transform="matrix(0.996, 0.087, -0.087, 0.996, 1358.184, 30.549)" fill="#fff"/>
  </g>
</svg>
