<svg xmlns="http://www.w3.org/2000/svg" width="35.919" height="54.833" viewBox="0 0 35.919 54.833">
  <path id="mastografía-sin-costo" d="M59.715,31.371V20.6a10.6,10.6,0,0,0-17.958-7.622A10.6,10.6,0,0,0,23.8,20.6V31.371a10.528,10.528,0,0,0,3.1,7.492l8,8.013L24.1,57.685a1.028,1.028,0,0,0,0,1.46l5.387,5.387a1.035,1.035,0,0,0,.727.3,1.049,1.049,0,0,0,.733-.3L41.757,53.723,52.566,64.532h0a.8.8,0,0,0,.206.13.959.959,0,0,0,.11.069,1.062,1.062,0,0,0,.384.075,1.022,1.022,0,0,0,.37-.075h0a.925.925,0,0,0,.315-.206h0l4.976-5.394a1.028,1.028,0,0,0,0-1.426L48.4,47.081l8.225-8.225A10.528,10.528,0,0,0,59.715,31.371ZM28.357,14.558a8.54,8.54,0,0,1,12.07,0,6.168,6.168,0,0,1,.535.589,1.069,1.069,0,0,0,1.59,0,7.238,7.238,0,0,1,.535-.6,8.533,8.533,0,0,1,14.565,6.032h0a8.465,8.465,0,0,1-2.289,5.792,8.136,8.136,0,0,0-13.606-6.354A8.136,8.136,0,0,0,28.151,26.4a8.444,8.444,0,0,1-2.289-5.792h0a8.485,8.485,0,0,1,2.495-6.052Zm13.4,25.861L31.969,30.35a6.087,6.087,0,0,1,8.616-8.6,4.4,4.4,0,0,1,.377.425,1.076,1.076,0,0,0,1.59,0,4.4,4.4,0,0,1,.377-.425,6.087,6.087,0,1,1,8.6,8.609ZM30.214,62.352l-3.927-3.934L36.369,48.342,40.3,52.27Zm23.051,0L28.357,37.417a8.479,8.479,0,0,1-2.495-6.039V26.861a10.131,10.131,0,0,0,1.028,1.213L30.5,31.8h0L41.017,42.612h0L56.836,58.445ZM46.939,45.642,43.2,41.906,53,31.81h0l3.612-3.722a10.968,10.968,0,0,0,1.042-1.227v4.51a8.479,8.479,0,0,1-2.495,6.045Z" transform="translate(-23.796 -10)" fill="#fff"/>
</svg>
