<svg xmlns="http://www.w3.org/2000/svg" width="31.18" height="42.365" viewBox="0 0 31.18 42.365">
  <path id="mastografia-en-150" d="M42.838,34.074l5.246-6.807a.771.771,0,0,0,.1-.138c2.509-4.367-2.832-13.683-3.668-15.091v-.243h-.169a.587.587,0,0,0-.228-.185A.614.614,0,0,0,44,11.535l-.064-.053h-.053a20.951,20.951,0,0,0-15.483,0l-.116.048-.132.079-.122.085a1.144,1.144,0,0,0-.222.254l-.048.09h0c-.842,1.413-6.177,10.73-3.705,15.076a.688.688,0,0,0,.09.138L29.4,34.074l-8,9.8a3.806,3.806,0,0,0,.434,5.293l2.5,2.223a3.764,3.764,0,0,0,2.885.953,3.848,3.848,0,0,0,2.647-1.466l6.262-8.109,6.241,8.088a3.869,3.869,0,0,0,2.678,1.487h.344a3.859,3.859,0,0,0,2.546-.963l2.483-2.213a3.822,3.822,0,0,0,.418-5.293ZM43.9,11.884Zm.392,4.4c2.117,4.5,2.9,8.088,2.027,9.713l-4.891,6.363-3.907-4.764L41.4,22.831a16.028,16.028,0,0,0,2.911-6.548Zm-8.157,9.6L32.9,21.925a11.116,11.116,0,0,1,6.469,0ZM42.4,13.234l-.233,2.721c-.037.169-.074.333-.132.566l-.053.2c-.037.138-.079.275-.122.418s-.058.206-.1.312l-.111.328c-.048.138-.1.275-.159.429a.59.59,0,0,1-.064.175,16.158,16.158,0,0,1-.794,1.673,13.175,13.175,0,0,0-9,0,15.377,15.377,0,0,1-.8-1.715l-.312.127h0l.27-.243c-.064-.159-.122-.323-.18-.492-.032-.079-.058-.169-.09-.259l-.132-.423a1.709,1.709,0,0,0-.09-.339,2.649,2.649,0,0,1-.079-.312c-.037-.143-.074-.286-.116-.487l-.222-2.678A18.924,18.924,0,0,1,42.4,13.234ZM28.191,49.541a1.657,1.657,0,0,1-2.424.222l-2.5-2.218a1.667,1.667,0,0,1-.185-2.3l7.7-9.412L34.771,41Zm20.829-2-2.5,2.223a1.588,1.588,0,0,1-1.26.418,1.662,1.662,0,0,1-1.186-.64L25.931,26.017c-.884-1.588-.132-5.209,2.022-9.735a16.161,16.161,0,0,0,2.885,6.548l9.708,11.852V34.9h.18L49.2,45.248a1.657,1.657,0,0,1-.185,2.292Z" transform="translate(-20.533 -9.999)" fill="#fff"/>
</svg>
