<svg xmlns="http://www.w3.org/2000/svg" width="13.81" height="19.423" viewBox="0 0 13.81 19.423">
  <g id="paciente" transform="translate(0.2 0.2)">
    <path id="Iconos_Carrito_de_Compras_Avatar" data-name="Iconos Carrito de Compras_Avatar" d="M28.525,18.4A3.883,3.883,0,0,0,32.4,14.521v-.642a3.878,3.878,0,1,0-7.757,0v.642A3.883,3.883,0,0,0,28.525,18.4ZM25.41,13.883a3.115,3.115,0,1,1,6.229,0v.638a3.115,3.115,0,1,1-6.229,0ZM35.2,26.394c.019-.2.029-.412.029-.616a6.705,6.705,0,1,0-13.41,0,4.452,4.452,0,0,0,.029.616.119.119,0,0,0,.014.024v.043l.014.033.014.036a.205.205,0,0,0,.017.024.238.238,0,0,0,.026.04h0a.385.385,0,0,0,.043.045,10.172,10.172,0,0,0,13.086,0h0a.307.307,0,0,0,.038-.04v-.012A.371.371,0,0,0,35.2,26.394ZM22.6,26.18c0-.131-.019-.264-.019-.393a5.948,5.948,0,1,1,11.9,0,2.728,2.728,0,0,1-.019.393,9.4,9.4,0,0,1-11.849,0Z" transform="translate(-21.82 -10)" fill="#cf787d" stroke="#cf787d" stroke-width="0.4"/>
  </g>
</svg>
