<svg id="pacientes-beneficiados" xmlns="http://www.w3.org/2000/svg" width="49.618" height="50.416" viewBox="0 0 49.618 50.416">
  <g id="Grupo_8" data-name="Grupo 8" transform="translate(1.601 24.112)">
    <path id="Trazado_7" data-name="Trazado 7" d="M3.8,35.326a.8.8,0,0,1-.8-.8V31.431a.8.8,0,0,1,1.6,0v3.095A.8.8,0,0,1,3.8,35.326Z" transform="translate(-3.001 -30.631)" fill="#fff"/>
  </g>
  <g id="Grupo_9" data-name="Grupo 9" transform="translate(12.805 23.605)">
    <path id="Trazado_8" data-name="Trazado 8" d="M17.8,35.2a.8.8,0,0,1-.8-.8V30.8a.8.8,0,1,1,1.6,0v3.6A.8.8,0,0,1,17.8,35.2Z" transform="translate(-17.001 -29.998)" fill="#fff"/>
  </g>
  <g id="Grupo_10" data-name="Grupo 10" transform="translate(0.8 17.603)">
    <path id="Trazado_9" data-name="Trazado 9" d="M14.806,30.1a.8.8,0,0,1-.8-.8,5.2,5.2,0,1,0-10.4,0,.8.8,0,1,1-1.6,0,6.8,6.8,0,1,1,13.605,0A.8.8,0,0,1,14.806,30.1Z" transform="translate(-2.001 -22.498)" fill="#fff"/>
  </g>
  <g id="Grupo_11" data-name="Grupo 11" transform="translate(0.801 22.738)">
    <path id="Trazado_10" data-name="Trazado 10" d="M14.807,32.479a.8.8,0,0,1-.636-.314c-1.546-2.019-1.966-1.851-3.533-1.231a13.484,13.484,0,0,1-7.961.834.8.8,0,0,1,.25-1.581,11.906,11.906,0,0,0,7.122-.742c1.928-.763,3.221-1.09,5.392,1.745a.8.8,0,0,1-.149,1.122.791.791,0,0,1-.486.166Z" transform="translate(-2.001 -28.914)" fill="#fff"/>
  </g>
  <g id="Grupo_12" data-name="Grupo 12" transform="translate(9.604 19.527)">
    <path id="Trazado_11" data-name="Trazado 11" d="M13.8,29.762a.79.79,0,0,1-.351-.082.8.8,0,0,1-.366-1.071l1.6-3.259a.8.8,0,0,1,1.437.705l-1.6,3.259A.8.8,0,0,1,13.8,29.762Z" transform="translate(-13.002 -24.902)" fill="#fff"/>
  </g>
  <g id="Grupo_13" data-name="Grupo 13" transform="translate(0 34.406)">
    <path id="Trazado_12" data-name="Trazado 12" d="M1.8,47.5a.8.8,0,0,1-.8-.8,3.2,3.2,0,0,1,3.2-3.2.8.8,0,0,1,0,1.6,1.6,1.6,0,0,0-1.6,1.6A.8.8,0,0,1,1.8,47.5Z" transform="translate(-1.001 -43.494)" fill="#fff"/>
  </g>
  <g id="Grupo_14" data-name="Grupo 14" transform="translate(2.401 34.411)">
    <path id="Trazado_13" data-name="Trazado 13" d="M7.2,45.1H4.8a.8.8,0,1,1,0-1.6H7.2a.8.8,0,1,1,0,1.6Z" transform="translate(-4.001 -43.5)" fill="#fff"/>
  </g>
  <g id="Grupo_15" data-name="Grupo 15" transform="translate(0 36.807)">
    <path id="Trazado_14" data-name="Trazado 14" d="M1.8,51.3a.8.8,0,0,1-.8-.8v-3.2a.8.8,0,0,1,1.6,0v3.2A.8.8,0,0,1,1.8,51.3Z" transform="translate(-1.001 -46.494)" fill="#fff"/>
  </g>
  <g id="Grupo_16" data-name="Grupo 16" transform="translate(12.005 34.406)">
    <path id="Trazado_15" data-name="Trazado 15" d="M19.2,47.5a.8.8,0,0,1-.8-.8,1.6,1.6,0,0,0-1.6-1.6.8.8,0,0,1,0-1.6A3.2,3.2,0,0,1,20,46.7.8.8,0,0,1,19.2,47.5Z" transform="translate(-16.001 -43.494)" fill="#fff"/>
  </g>
  <g id="Grupo_17" data-name="Grupo 17" transform="translate(9.604 34.411)">
    <path id="Trazado_16" data-name="Trazado 16" d="M16.2,45.1H13.8a.8.8,0,1,1,0-1.6h2.4a.8.8,0,1,1,0,1.6Z" transform="translate(-13.001 -43.5)" fill="#fff"/>
  </g>
  <g id="Grupo_18" data-name="Grupo 18" transform="translate(14.406 36.807)">
    <path id="Trazado_17" data-name="Trazado 17" d="M19.8,51.3a.8.8,0,0,1-.8-.8v-3.2a.8.8,0,0,1,1.6,0v3.2A.8.8,0,0,1,19.8,51.3Z" transform="translate(-19.001 -46.494)" fill="#fff"/>
  </g>
  <g id="Grupo_19" data-name="Grupo 19" transform="translate(4.802 32.263)">
    <path id="Trazado_18" data-name="Trazado 18" d="M7.8,44.565a.8.8,0,0,1-.8-.8V41.616a.8.8,0,0,1,1.6,0v2.148A.8.8,0,0,1,7.8,44.565Z" transform="translate(-7.001 -40.816)" fill="#fff"/>
  </g>
  <g id="Grupo_20" data-name="Grupo 20" transform="translate(9.604 32.263)">
    <path id="Trazado_19" data-name="Trazado 19" d="M13.8,44.56a.8.8,0,0,1-.8-.8V41.616a.8.8,0,1,1,1.6,0V43.76A.8.8,0,0,1,13.8,44.56Z" transform="translate(-13.001 -40.816)" fill="#fff"/>
  </g>
  <g id="Grupo_21" data-name="Grupo 21" transform="translate(1.601 27.203)">
    <path id="Trazado_20" data-name="Trazado 20" d="M9.4,41.694a6.408,6.408,0,0,1-6.4-6.4.8.8,0,1,1,1.6,0,4.8,4.8,0,0,0,9.6,0,.8.8,0,1,1,1.6,0,6.408,6.408,0,0,1-6.4,6.4Z" transform="translate(-3.001 -34.494)" fill="#fff"/>
  </g>
  <g id="Grupo_22" data-name="Grupo 22" transform="translate(35.212 20.801)">
    <path id="Trazado_21" data-name="Trazado 21" d="M45.8,34.5a.8.8,0,0,1-.8-.8V27.294a.8.8,0,1,1,1.6,0V33.7A.8.8,0,0,1,45.8,34.5Z" transform="translate(-44.999 -26.494)" fill="#fff"/>
  </g>
  <g id="Grupo_23" data-name="Grupo 23" transform="translate(46.416 26.972)">
    <path id="Trazado_22" data-name="Trazado 22" d="M59.8,36.04a.8.8,0,0,1-.8-.8v-.234a.8.8,0,0,1,1.6,0v.234A.8.8,0,0,1,59.8,36.04Z" transform="translate(-58.999 -34.205)" fill="#fff"/>
  </g>
  <g id="Grupo_24" data-name="Grupo 24" transform="translate(33.611 34.406)">
    <path id="Trazado_23" data-name="Trazado 23" d="M43.8,47.5a.8.8,0,0,1-.8-.8,3.2,3.2,0,0,1,3.2-3.2.8.8,0,0,1,0,1.6,1.6,1.6,0,0,0-1.6,1.6A.8.8,0,0,1,43.8,47.5Z" transform="translate(-42.999 -43.494)" fill="#fff"/>
  </g>
  <g id="Grupo_25" data-name="Grupo 25" transform="translate(36.012 34.411)">
    <path id="Trazado_24" data-name="Trazado 24" d="M49.2,45.1H46.8a.8.8,0,1,1,0-1.6h2.4a.8.8,0,1,1,0,1.6Z" transform="translate(-45.999 -43.5)" fill="#fff"/>
  </g>
  <g id="Grupo_26" data-name="Grupo 26" transform="translate(33.611 36.807)">
    <path id="Trazado_25" data-name="Trazado 25" d="M43.8,51.3a.8.8,0,0,1-.8-.8v-3.2a.8.8,0,0,1,1.6,0v3.2A.8.8,0,0,1,43.8,51.3Z" transform="translate(-42.999 -46.494)" fill="#fff"/>
  </g>
  <g id="Grupo_27" data-name="Grupo 27" transform="translate(45.616 34.406)">
    <path id="Trazado_26" data-name="Trazado 26" d="M61.2,47.5a.8.8,0,0,1-.8-.8,1.6,1.6,0,0,0-1.6-1.6.8.8,0,0,1,0-1.6A3.2,3.2,0,0,1,62,46.7.8.8,0,0,1,61.2,47.5Z" transform="translate(-57.999 -43.494)" fill="#fff"/>
  </g>
  <g id="Grupo_28" data-name="Grupo 28" transform="translate(43.215 34.411)">
    <path id="Trazado_27" data-name="Trazado 27" d="M58.2,45.1H55.8a.8.8,0,1,1,0-1.6h2.4a.8.8,0,1,1,0,1.6Z" transform="translate(-54.999 -43.5)" fill="#fff"/>
  </g>
  <g id="Grupo_29" data-name="Grupo 29" transform="translate(48.017 36.807)">
    <path id="Trazado_28" data-name="Trazado 28" d="M61.8,51.3a.8.8,0,0,1-.8-.8v-3.2a.8.8,0,0,1,1.6,0v3.2A.8.8,0,0,1,61.8,51.3Z" transform="translate(-60.999 -46.494)" fill="#fff"/>
  </g>
  <g id="Grupo_30" data-name="Grupo 30" transform="translate(38.413 32.263)">
    <path id="Trazado_29" data-name="Trazado 29" d="M49.8,44.565a.8.8,0,0,1-.8-.8V41.616a.8.8,0,0,1,1.6,0v2.148A.8.8,0,0,1,49.8,44.565Z" transform="translate(-48.999 -40.816)" fill="#fff"/>
  </g>
  <g id="Grupo_31" data-name="Grupo 31" transform="translate(43.215 32.263)">
    <path id="Trazado_30" data-name="Trazado 30" d="M55.8,44.56a.8.8,0,0,1-.8-.8V41.616a.8.8,0,1,1,1.6,0V43.76A.8.8,0,0,1,55.8,44.56Z" transform="translate(-54.999 -40.816)" fill="#fff"/>
  </g>
  <g id="Grupo_32" data-name="Grupo 32" transform="translate(35.212 27.203)">
    <path id="Trazado_31" data-name="Trazado 31" d="M51.4,41.694a6.408,6.408,0,0,1-6.4-6.4.8.8,0,1,1,1.6,0,4.8,4.8,0,0,0,9.6,0,.8.8,0,1,1,1.6,0A6.408,6.408,0,0,1,51.4,41.694Z" transform="translate(-44.999 -34.494)" fill="#fff"/>
  </g>
  <g id="Grupo_33" data-name="Grupo 33" transform="translate(14.405 41.612)">
    <path id="Trazado_32" data-name="Trazado 32" d="M19.8,58.1a.8.8,0,0,1-.8-.8,4.807,4.807,0,0,1,4.8-4.8.8.8,0,1,1,0,1.6,3.2,3.2,0,0,0-3.2,3.2A.8.8,0,0,1,19.8,58.1Z" transform="translate(-19 -52.498)" fill="#fff"/>
  </g>
  <g id="Grupo_34" data-name="Grupo 34" transform="translate(18.406 41.612)">
    <path id="Trazado_33" data-name="Trazado 33" d="M27.2,54.1H24.8a.8.8,0,0,1,0-1.6h2.4a.8.8,0,0,1,0,1.6Z" transform="translate(-24 -52.498)" fill="#fff"/>
  </g>
  <g id="Grupo_35" data-name="Grupo 35" transform="translate(14.405 45.614)">
    <path id="Trazado_34" data-name="Trazado 34" d="M19.8,62.3a.8.8,0,0,1-.8-.8V58.3a.8.8,0,0,1,1.6,0v3.2A.8.8,0,0,1,19.8,62.3Z" transform="translate(-19 -57.498)" fill="#fff"/>
  </g>
  <g id="Grupo_36" data-name="Grupo 36" transform="translate(29.611 41.612)">
    <path id="Trazado_35" data-name="Trazado 35" d="M42.8,58.1a.8.8,0,0,1-.8-.8,3.2,3.2,0,0,0-3.2-3.2.8.8,0,1,1,0-1.6,4.807,4.807,0,0,1,4.8,4.8A.8.8,0,0,1,42.8,58.1Z" transform="translate(-38 -52.498)" fill="#fff"/>
  </g>
  <g id="Grupo_37" data-name="Grupo 37" transform="translate(27.21 41.612)">
    <path id="Trazado_36" data-name="Trazado 36" d="M38.2,54.1H35.8a.8.8,0,0,1,0-1.6h2.4a.8.8,0,0,1,0,1.6Z" transform="translate(-35 -52.498)" fill="#fff"/>
  </g>
  <g id="Grupo_38" data-name="Grupo 38" transform="translate(33.612 45.614)">
    <path id="Trazado_37" data-name="Trazado 37" d="M43.8,62.3a.8.8,0,0,1-.8-.8V58.3a.8.8,0,1,1,1.6,0v3.2A.8.8,0,0,1,43.8,62.3Z" transform="translate(-43 -57.498)" fill="#fff"/>
  </g>
  <g id="Grupo_39" data-name="Grupo 39" transform="translate(20.807 38.462)">
    <path id="Trazado_38" data-name="Trazado 38" d="M27.8,53.313a.8.8,0,0,1-.8-.8v-3.15a.8.8,0,0,1,1.6,0v3.15A.8.8,0,0,1,27.8,53.313Z" transform="translate(-27 -48.562)" fill="#fff"/>
  </g>
  <g id="Grupo_40" data-name="Grupo 40" transform="translate(27.21 38.462)">
    <path id="Trazado_39" data-name="Trazado 39" d="M35.8,53.313a.8.8,0,0,1-.8-.8v-3.15a.8.8,0,0,1,1.6,0v3.15A.8.8,0,0,1,35.8,53.313Z" transform="translate(-35 -48.562)" fill="#fff"/>
  </g>
  <g id="Grupo_41" data-name="Grupo 41" transform="translate(16.806 32.01)">
    <path id="Trazado_40" data-name="Trazado 40" d="M30,49.3a8.011,8.011,0,0,1-8-8,.8.8,0,0,1,1.6,0,6.4,6.4,0,0,0,12.8,0,.8.8,0,0,1,1.6,0A8.012,8.012,0,0,1,30,49.3Z" transform="translate(-22 -40.5)" fill="#fff"/>
  </g>
  <g id="Grupo_42" data-name="Grupo 42" transform="translate(16.806 27.207)">
    <path id="Trazado_41" data-name="Trazado 41" d="M22.8,40.941a.8.8,0,0,1-.8-.8V35.3a.8.8,0,0,1,1.6,0v4.843A.8.8,0,0,1,22.8,40.941Z" transform="translate(-22 -34.498)" fill="#fff"/>
  </g>
  <g id="Grupo_43" data-name="Grupo 43" transform="translate(31.211 27.207)">
    <path id="Trazado_42" data-name="Trazado 42" d="M40.8,40.9a.8.8,0,0,1-.8-.8V35.3a.8.8,0,1,1,1.6,0v4.8A.8.8,0,0,1,40.8,40.9Z" transform="translate(-40 -34.498)" fill="#fff"/>
  </g>
  <g id="Grupo_44" data-name="Grupo 44" transform="translate(28.01 24.005)">
    <path id="Trazado_43" data-name="Trazado 43" d="M40,35.3a.8.8,0,0,1-.8-.8,2.4,2.4,0,0,0-2.4-2.4.8.8,0,0,1,0-1.6,4.006,4.006,0,0,1,4,4A.8.8,0,0,1,40,35.3Z" transform="translate(-36 -30.498)" fill="#fff"/>
  </g>
  <g id="Grupo_45" data-name="Grupo 45" transform="translate(28.01 20.804)">
    <path id="Trazado_44" data-name="Trazado 44" d="M36.8,31.3a.8.8,0,0,1-.8-.8V27.3a.8.8,0,0,1,1.6,0v3.2A.8.8,0,0,1,36.8,31.3Z" transform="translate(-36 -26.498)" fill="#fff"/>
  </g>
  <g id="Grupo_46" data-name="Grupo 46" transform="translate(23.208 20.815)">
    <path id="Trazado_45" data-name="Trazado 45" d="M35.6,28.113H30.8a.8.8,0,0,1,0-1.6h4.8a.8.8,0,0,1,0,1.6Z" transform="translate(-30 -26.512)" fill="#fff"/>
  </g>
  <g id="Grupo_47" data-name="Grupo 47" transform="translate(16.806 20.804)">
    <path id="Trazado_46" data-name="Trazado 46" d="M22.8,34.5a.8.8,0,0,1-.8-.8,7.211,7.211,0,0,1,7.2-7.2.8.8,0,0,1,0,1.6,5.609,5.609,0,0,0-5.6,5.6A.8.8,0,0,1,22.8,34.5Z" transform="translate(-22 -26.498)" fill="#fff"/>
  </g>
  <g id="Grupo_51" data-name="Grupo 51" transform="translate(16.806 28.006)">
    <g id="Grupo_48" data-name="Grupo 48" transform="translate(12.004 0)">
      <path id="Trazado_47" data-name="Trazado 47" d="M40.2,38.719a.8.8,0,0,1-.447-.137l-2.4-1.621a.8.8,0,0,1,.9-1.328l2.4,1.621a.8.8,0,0,1-.448,1.465Z" transform="translate(-36.999 -35.498)" fill="#fff"/>
    </g>
    <g id="Grupo_49" data-name="Grupo 49" transform="translate(2.401)">
      <path id="Trazado_48" data-name="Trazado 48" d="M31,37.9a19.141,19.141,0,0,1-5.454-.841.8.8,0,0,1,.5-1.52A17.816,17.816,0,0,0,31,36.3a10.106,10.106,0,0,0,4.049-.718.8.8,0,0,1,.711,1.435A11.431,11.431,0,0,1,31,37.9Z" transform="translate(-25 -35.497)" fill="#fff"/>
    </g>
    <g id="Grupo_50" data-name="Grupo 50" transform="translate(0 0.001)">
      <path id="Trazado_49" data-name="Trazado 49" d="M22.8,38.719a.8.8,0,0,1-.448-1.464l2.4-1.621a.8.8,0,1,1,.9,1.328l-2.4,1.621A.8.8,0,0,1,22.8,38.719Z" transform="translate(-22 -35.498)" fill="#fff"/>
    </g>
  </g>
  <g id="Grupo_52" data-name="Grupo 52" transform="translate(37.613 16.799)">
    <path id="Trazado_50" data-name="Trazado 50" d="M59.2,29.5a.8.8,0,0,1-.8-.8,5.609,5.609,0,0,0-5.6-5.6,5.841,5.841,0,0,0-3.5,1.425.8.8,0,0,1-1-1.248,7.29,7.29,0,0,1,4.5-1.777A7.211,7.211,0,0,1,60,28.7.8.8,0,0,1,59.2,29.5Z" transform="translate(-47.999 -21.494)" fill="#fff"/>
  </g>
  <g id="Grupo_53" data-name="Grupo 53" transform="translate(41.615 24.802)">
    <path id="Trazado_51" data-name="Trazado 51" d="M60.2,39.5a.8.8,0,0,1-.8-.8,5.609,5.609,0,0,0-5.6-5.6.8.8,0,0,1,0-1.6A7.211,7.211,0,0,1,61,38.7.8.8,0,0,1,60.2,39.5Z" transform="translate(-52.999 -31.494)" fill="#fff"/>
  </g>
  <g id="Grupo_54" data-name="Grupo 54" transform="translate(35.212 22.401)">
    <path id="Trazado_52" data-name="Trazado 52" d="M45.8,32.5a.8.8,0,0,1,0-1.6,1.6,1.6,0,0,0,1.6-1.6.8.8,0,1,1,1.6,0A3.2,3.2,0,0,1,45.8,32.5Z" transform="translate(-44.999 -28.494)" fill="#fff"/>
  </g>
  <g id="Grupo_55" data-name="Grupo 55" transform="translate(35.212 18.411)">
    <path id="Trazado_53" data-name="Trazado 53" d="M45.8,27.51a.8.8,0,0,1-.8-.8,3.2,3.2,0,0,1,3.2-3.2.8.8,0,0,1,0,1.6,1.6,1.6,0,0,0-1.6,1.6A.8.8,0,0,1,45.8,27.51Z" transform="translate(-44.999 -23.508)" fill="#fff"/>
  </g>
  <g id="Grupo_56" data-name="Grupo 56" transform="translate(37.613 22.401)">
    <path id="Trazado_54" data-name="Trazado 54" d="M51.2,32.5a3.2,3.2,0,0,1-3.2-3.2.8.8,0,1,1,1.6,0,1.6,1.6,0,0,0,1.6,1.6.8.8,0,0,1,0,1.6Z" transform="translate(-47.999 -28.494)" fill="#fff"/>
  </g>
  <g id="Grupo_57" data-name="Grupo 57" transform="translate(37.613 18.4)">
    <path id="Trazado_55" data-name="Trazado 55" d="M48.8,29.1a.8.8,0,0,1-.8-.8v-4a.8.8,0,1,1,1.6,0v4A.8.8,0,0,1,48.8,29.1Z" transform="translate(-47.999 -23.494)" fill="#fff"/>
  </g>
  <g id="Grupo_58" data-name="Grupo 58" transform="translate(48.017 23.202)">
    <path id="Trazado_56" data-name="Trazado 56" d="M61.8,39.1a.8.8,0,0,1-.8-.8v-8a.8.8,0,1,1,1.6,0v8A.8.8,0,0,1,61.8,39.1Z" transform="translate(-60.999 -29.494)" fill="#fff"/>
  </g>
  <g id="Grupo_59" data-name="Grupo 59" transform="translate(40.014 24.802)">
    <path id="Trazado_57" data-name="Trazado 57" d="M53.4,33.095H51.8a.8.8,0,0,1,0-1.6h1.6a.8.8,0,0,1,0,1.6Z" transform="translate(-50.999 -31.494)" fill="#fff"/>
  </g>
  <g id="Grupo_60" data-name="Grupo 60" transform="translate(0.8 23.605)">
    <path id="Trazado_58" data-name="Trazado 58" d="M2.8,32a.8.8,0,0,1-.8-.8v-.4a.8.8,0,1,1,1.6,0v.4A.8.8,0,0,1,2.8,32Z" transform="translate(-2.001 -29.998)" fill="#fff"/>
  </g>
  <g id="Grupo_61" data-name="Grupo 61" transform="translate(20.807 41.612)">
    <path id="Trazado_59" data-name="Trazado 59" d="M29.4,54.894a.8.8,0,0,1-.355-.083l-1.6-.8a.8.8,0,0,1,.713-1.433l1.6.8a.8.8,0,0,1-.358,1.517Z" transform="translate(-27 -52.497)" fill="#fff"/>
  </g>
  <g id="Grupo_62" data-name="Grupo 62" transform="translate(22.407 41.608)">
    <path id="Trazado_60" data-name="Trazado 60" d="M29.8,54.893a.8.8,0,0,1-.359-1.517l1.6-.8a.8.8,0,0,1,.715,1.432l-1.6.8A.782.782,0,0,1,29.8,54.893Z" transform="translate(-28.999 -52.493)" fill="#fff"/>
  </g>
  <g id="Grupo_63" data-name="Grupo 63" transform="translate(25.609 41.611)">
    <path id="Trazado_61" data-name="Trazado 61" d="M33.8,54.894a.8.8,0,0,1-.357-1.517l1.6-.8a.8.8,0,1,1,.713,1.433l-1.6.8A.793.793,0,0,1,33.8,54.894Z" transform="translate(-33 -52.496)" fill="#fff"/>
  </g>
  <g id="Grupo_64" data-name="Grupo 64" transform="translate(24.009 41.609)">
    <path id="Trazado_62" data-name="Trazado 62" d="M33.4,54.893a.791.791,0,0,1-.356-.084l-1.6-.8a.8.8,0,0,1,.715-1.432l1.6.8a.8.8,0,0,1-.359,1.516Z" transform="translate(-31 -52.494)" fill="#fff"/>
  </g>
  <g id="Grupo_65" data-name="Grupo 65" transform="translate(38.413 34.41)">
    <path id="Trazado_63" data-name="Trazado 63" d="M52.2,46.695a.8.8,0,0,1-.442-.134l-2.4-1.594a.8.8,0,0,1,.885-1.333l2.4,1.594a.8.8,0,0,1-.443,1.467Z" transform="translate(-48.999 -43.499)" fill="#fff"/>
  </g>
  <g id="Grupo_66" data-name="Grupo 66" transform="translate(40.812 34.41)">
    <path id="Trazado_64" data-name="Trazado 64" d="M52.8,46.695a.8.8,0,0,1-.443-1.467l2.4-1.594a.8.8,0,0,1,.885,1.333l-2.4,1.594a.8.8,0,0,1-.442.134Z" transform="translate(-51.997 -43.499)" fill="#fff"/>
  </g>
  <g id="Grupo_67" data-name="Grupo 67" transform="translate(4.802 34.408)">
    <path id="Trazado_65" data-name="Trazado 65" d="M10.2,46.7C8.407,46.7,7,45.643,7,44.3a.8.8,0,0,1,1.6,0c0,.327.623.8,1.6.8s1.6-.474,1.6-.8a.8.8,0,0,1,1.6,0C13.4,45.643,12,46.7,10.2,46.7Z" transform="translate(-7.001 -43.496)" fill="#fff"/>
  </g>
  <g id="Grupo_71" data-name="Grupo 71" transform="translate(14.405 0)">
    <g id="Grupo_68" data-name="Grupo 68">
      <path id="Trazado_66" data-name="Trazado 66" d="M29.4,19.667a.8.8,0,0,1-.566-.234l-7.957-7.956a6.424,6.424,0,0,1,0-9.085,6.415,6.415,0,0,1,8.525-.5,6.426,6.426,0,0,1,8.523.492,6.46,6.46,0,0,1,.044,9.054c-.014.016-.028.031-.043.046l-7.958,7.954A.806.806,0,0,1,29.4,19.667ZM25.426,2.1a4.828,4.828,0,0,0-3.413,8.241l7.392,7.39,7.333-7.33a.91.91,0,0,1,.1-.1,4.852,4.852,0,0,0-.042-6.794,4.823,4.823,0,0,0-6.821.012.827.827,0,0,1-1.136,0A4.785,4.785,0,0,0,25.426,2.1Z" transform="translate(-19 -0.503)" fill="#fff"/>
    </g>
    <path id="Exclusión_2" data-name="Exclusión 2" d="M-2735.307-416.092a.814.814,0,0,1-.467-.216.743.743,0,0,1-.323-.517c-.039-.4.3-.825.627-1.2a4.75,4.75,0,0,0,.959-1.736c-.157-.131-1.527-1.307-1.638-2.315a2.54,2.54,0,0,1,.7-1.851,2.07,2.07,0,0,1,1.514-.742h.03a3.048,3.048,0,0,1,2.236.831,1.2,1.2,0,0,1,.269,1.021,8.982,8.982,0,0,1-1.241,2.732,14.639,14.639,0,0,0,1.709,1.574c.5.376.739.7.739,1.005a.792.792,0,0,1-.387.615.612.612,0,0,1-.367.144c-.278,0-.524-.264-.836-.6-.123-.132-.26-.279-.412-.424a16.273,16.273,0,0,1-1.146-1.2.066.066,0,0,1-.007.015c-.108.214-.418.806-.953,1.675-.056.09-.107.176-.156.256C-2734.821-416.424-2735.022-416.092-2735.307-416.092Zm1.371-7.628a.914.914,0,0,0-.794.378,1.175,1.175,0,0,0-.108,1.061,6.178,6.178,0,0,0,1.194,1.551,19.064,19.064,0,0,0,.866-1.783.875.875,0,0,0-.117-.744,1.163,1.163,0,0,0-.937-.46C-2733.867-423.719-2733.9-423.72-2733.936-423.72Z" transform="matrix(0.996, 0.087, -0.087, 0.996, 2696.549, 665.85)" fill="#fff"/>
  </g>
</svg>
