<svg xmlns="http://www.w3.org/2000/svg" width="31.29" height="39.71" viewBox="0 0 31.29 39.71">
  <g id="preparacion" transform="translate(0.003)">
    <path id="Trazado_12839" data-name="Trazado 12839" d="M30.739,11.431a.569.569,0,0,0,.545-.59v-3.8a4.234,4.234,0,0,0-4.052-4.387H23.948v-.3A2.273,2.273,0,0,0,21.772,0H9.512A2.273,2.273,0,0,0,7.335,2.355v.3H4.051A4.234,4.234,0,0,0,0,7.045V35.324A4.234,4.234,0,0,0,4.051,39.71H27.232a4.234,4.234,0,0,0,4.052-4.387V13.2a.546.546,0,1,0-1.09,0V35.324a3.1,3.1,0,0,1-2.963,3.208H4.051a3.1,3.1,0,0,1-2.963-3.208V7.045A3.1,3.1,0,0,1,4.051,3.837H7.335v.155A2.342,2.342,0,0,0,8.9,6.253V7.542H4.839a2.406,2.406,0,0,0-2.3,2.492V34.515a2.406,2.406,0,0,0,2.3,2.492H6.116a.592.592,0,0,0,0-1.179H4.839a1.264,1.264,0,0,1-1.213-1.313V10.034A1.264,1.264,0,0,1,4.839,8.722H26.445a1.264,1.264,0,0,1,1.212,1.312V34.515a1.264,1.264,0,0,1-1.212,1.312H8.295a.592.592,0,0,0,0,1.18H26.444a2.406,2.406,0,0,0,2.3-2.492V10.034a2.406,2.406,0,0,0-2.3-2.492H22.387V6.253a2.342,2.342,0,0,0,1.562-2.26V3.838h3.283a3.1,3.1,0,0,1,2.963,3.208v3.8a.569.569,0,0,0,.544.59ZM9.986,7.544V6.349H21.3V7.542ZM21.772,5.17H9.512A1.135,1.135,0,0,1,8.425,3.994V2.355A1.135,1.135,0,0,1,9.512,1.179H21.772a1.135,1.135,0,0,1,1.087,1.176V3.993A1.135,1.135,0,0,1,21.772,5.17Zm0,0" fill="#616161"/>
    <path id="Trazado_12840" data-name="Trazado 12840" d="M82.793,242.157a2.092,2.092,0,0,0,2.089,2.089H87.11a2.091,2.091,0,0,0,2.089-2.089V239.93a2.073,2.073,0,0,0-.233-.957l.583-.829a.59.59,0,0,0-.964-.68l-.453.643a2.074,2.074,0,0,0-1.022-.268H84.882a2.092,2.092,0,0,0-2.089,2.089Zm1.18-2.228a.911.911,0,0,1,.909-.91H87.11a.9.9,0,0,1,.334.065l-1.369,1.944-.486-.486a.59.59,0,0,0-.834.834l.983.983a.59.59,0,0,0,.417.173h.051a.589.589,0,0,0,.432-.249l1.382-1.965v1.839a.911.911,0,0,1-.91.91H84.882a.911.911,0,0,1-.91-.91V239.93Zm0,0" transform="translate(-76.986 -218.814)" fill="#fac2bf"/>
    <path id="Trazado_12841" data-name="Trazado 12841" d="M82.793,346.431a2.092,2.092,0,0,0,2.089,2.089H87.11a2.092,2.092,0,0,0,2.089-2.089V344.2a2.092,2.092,0,0,0-2.089-2.089H84.882a2.092,2.092,0,0,0-2.089,2.089Zm1.18-2.228a.911.911,0,0,1,.909-.91H87.11a.911.911,0,0,1,.909.91v2.228a.911.911,0,0,1-.909.91H84.882a.911.911,0,0,1-.909-.91Zm0,0" transform="translate(-76.977 -315.58)" fill="#fac2bf"/>
    <path id="Trazado_12842" data-name="Trazado 12842" d="M183.088,168.152h8.5a.59.59,0,1,0,0-1.179h-8.5a.59.59,0,1,0,0,1.179Zm0,0" transform="translate(-169.857 -154.023)" fill="#616161"/>
    <path id="Trazado_12843" data-name="Trazado 12843" d="M183.089,198.539H195.18a.59.59,0,1,0,0-1.18H183.089a.59.59,0,1,0,0,1.18Zm0,0" transform="translate(-170.121 -182.052)" fill="#616161"/>
    <path id="Trazado_12844" data-name="Trazado 12844" d="M183.088,264.972h8.5a.59.59,0,1,0,0-1.179h-8.5a.59.59,0,1,0,0,1.179Zm0,0" transform="translate(-169.857 -243.334)" fill="#616161"/>
    <path id="Trazado_12845" data-name="Trazado 12845" d="M183.089,295.359H195.18a.59.59,0,0,0,0-1.18H183.089a.59.59,0,0,0,0,1.18Zm0,0" transform="translate(-170.121 -271.364)" fill="#616161"/>
    <path id="Trazado_12846" data-name="Trazado 12846" d="M183.088,361.788h8.5a.59.59,0,1,0,0-1.179h-8.5a.59.59,0,1,0,0,1.179Zm0,0" transform="translate(-169.857 -332.64)" fill="#616161"/>
    <path id="Trazado_12847" data-name="Trazado 12847" d="M183.089,392.179H195.18a.59.59,0,0,0,0-1.18H183.089a.59.59,0,0,0,0,1.18Zm0,0" transform="translate(-170.121 -360.674)" fill="#616161"/>
    <path id="Trazado_12848" data-name="Trazado 12848" d="M89.409,141.544a.59.59,0,0,0-.821.143l-.412.583a2.074,2.074,0,0,0-1.062-.292H84.882a2.092,2.092,0,0,0-2.089,2.089v2.228a2.092,2.092,0,0,0,2.089,2.089H87.11a2.092,2.092,0,0,0,2.089-2.089v-2.228a2.078,2.078,0,0,0-.209-.91l.559-.8A.59.59,0,0,0,89.409,141.544Zm-1.39,4.756a.911.911,0,0,1-.909.91H84.882a.911.911,0,0,1-.909-.91v-2.228a.91.91,0,0,1,.909-.909H87.11a.9.9,0,0,1,.378.084l-1.412,2.009-.486-.486a.59.59,0,0,0-.834.834l.983.983a.59.59,0,0,0,.417.173h.051a.588.588,0,0,0,.432-.249l1.382-1.965Zm0,0" transform="translate(-76.986 -130.467)" fill="#fac2bf"/>
  </g>
</svg>
