<svg id="que-debo-presentar" xmlns="http://www.w3.org/2000/svg" width="34" height="40.49" viewBox="0 0 34 40.49">
  <g id="Grupo_5161" data-name="Grupo 5161" transform="translate(23.62 4.218)">
    <g id="Grupo_5160" data-name="Grupo 5160">
      <path id="Trazado_4535" data-name="Trazado 4535" d="M302.924,53.333a4.257,4.257,0,1,0,4.257,4.257A4.257,4.257,0,0,0,302.924,53.333Zm0,7.45a3.193,3.193,0,1,1,3.193-3.193A3.193,3.193,0,0,1,302.924,60.783Z" transform="translate(-298.667 -53.333)" fill="#fac2bf"/>
    </g>
  </g>
  <g id="Grupo_5163" data-name="Grupo 5163" transform="translate(25.904 7.035)">
    <g id="Grupo_5162" data-name="Grupo 5162">
      <path id="Trazado_4536" data-name="Trazado 4536" d="M347.652,109.792l-1.752,1.752-.688-.688-.753.753,1.064,1.064a.532.532,0,0,0,.752,0l2.129-2.129Z" transform="translate(-344.459 -109.792)" fill="#fac2bf"/>
    </g>
  </g>
  <g id="Grupo_5167" data-name="Grupo 5167" transform="translate(3.374 10.123)">
    <g id="Grupo_5166" data-name="Grupo 5166">
      <path id="Trazado_4537" data-name="Trazado 4537" d="M57.85,128H48.571a5.912,5.912,0,0,0-5.9,5.9h1.687a4.223,4.223,0,0,1,4.218-4.218H57.85a1.687,1.687,0,0,1,0,3.374H48.571v1.687H57.85a3.374,3.374,0,0,0,0-6.748Z" transform="translate(-42.666 -128)" fill="#616161"/>
    </g>
  </g>
  <g id="Grupo_5169" data-name="Grupo 5169" transform="translate(0 13.497)">
    <g id="Grupo_5168" data-name="Grupo 5168">
      <path id="Trazado_4538" data-name="Trazado 4538" d="M.844,170.667A.844.844,0,0,0,0,171.51v.844H4.218v-1.687Z" transform="translate(0 -170.667)" fill="#616161"/>
    </g>
  </g>
  <g id="Grupo_5171" data-name="Grupo 5171" transform="translate(11.81 16.027)">
    <g id="Grupo_5170" data-name="Grupo 5170">
      <path id="Trazado_4539" data-name="Trazado 4539" d="M170.219,211.1v11.81a2.3,2.3,0,0,1-1.958,2.531H152.6a2.3,2.3,0,0,1-1.958-2.531V202.666h-1.305v20.245c0,2.328,1.462,4.215,3.263,4.218h15.664c1.8,0,3.261-1.89,3.263-4.218V211.1Z" transform="translate(-149.334 -202.666)" fill="#616161"/>
    </g>
  </g>
  <g id="Grupo_5173" data-name="Grupo 5173" transform="translate(12.057)">
    <g id="Grupo_5172" data-name="Grupo 5172">
      <path id="Trazado_4540" data-name="Trazado 4540" d="M171.147,0h-13.02a.587.587,0,0,0-.46.247L152.459,7l.921,1.193,5.017-6.5h12.75A2.3,2.3,0,0,1,173.1,4.218V24.588h1.3V4.218C174.4,1.89,172.944,0,171.147,0Z" transform="translate(-152.459)" fill="#616161"/>
    </g>
  </g>
  <g id="Grupo_5175" data-name="Grupo 5175" transform="translate(11.81 0)">
    <g id="Grupo_5174" data-name="Grupo 5174">
      <path id="Trazado_4541" data-name="Trazado 4541" d="M156.238.25a.635.635,0,0,0-1.006,0L149.542,7a.929.929,0,0,0-.208.6v3.374h1.422V7.944l4.267-5.061V5.908a.786.786,0,0,1-.711.844H152.89V8.438h1.422a2.358,2.358,0,0,0,2.134-2.531V.846A.929.929,0,0,0,156.238.25Z" transform="translate(-149.334 -0.003)" fill="#616161"/>
    </g>
  </g>
  <g id="Grupo_5177" data-name="Grupo 5177" transform="translate(3.374 22.776)">
    <g id="Grupo_5176" data-name="Grupo 5176">
      <path id="Trazado_4542" data-name="Trazado 4542" d="M44.354,288H42.667a5.912,5.912,0,0,0,5.9,5.9v-1.687A4.223,4.223,0,0,1,44.354,288Z" transform="translate(-42.667 -288)" fill="#616161"/>
    </g>
  </g>
  <g id="Grupo_5179" data-name="Grupo 5179" transform="translate(9.156 26.994)">
    <g id="Grupo_5178" data-name="Grupo 5178">
      <rect id="Rectángulo_3682" data-name="Rectángulo 3682" width="3.498" height="1.687" fill="#616161"/>
    </g>
  </g>
  <g id="Grupo_5181" data-name="Grupo 5181" transform="translate(0 23.62)">
    <g id="Grupo_5180" data-name="Grupo 5180">
      <path id="Trazado_4543" data-name="Trazado 4543" d="M0,298.667v.844a.844.844,0,0,0,.844.844H4.218v-1.687Z" transform="translate(0 -298.667)" fill="#616161"/>
    </g>
  </g>
  <g id="Rectángulo_3687" data-name="Rectángulo 3687" transform="translate(14.4 26.004)" fill="#616161" stroke="#616161" stroke-width="1">
    <rect width="16.8" height="1.688" rx="0.844" stroke="none"/>
    <rect x="0.5" y="0.5" width="15.8" height="0.688" rx="0.344" fill="none"/>
  </g>
  <g id="Rectángulo_3688" data-name="Rectángulo 3688" transform="translate(14.4 30.004)" fill="#616161" stroke="#616161" stroke-width="1">
    <rect width="16.8" height="1.688" rx="0.844" stroke="none"/>
    <rect x="0.5" y="0.5" width="15.8" height="0.688" rx="0.344" fill="none"/>
  </g>
  <g id="Rectángulo_3689" data-name="Rectángulo 3689" transform="translate(14.4 34.004)" fill="#616161" stroke="#616161" stroke-width="1">
    <rect width="16.8" height="1.688" rx="0.844" stroke="none"/>
    <rect x="0.5" y="0.5" width="15.8" height="0.688" rx="0.344" fill="none"/>
  </g>
  <g id="Rectángulo_3690" data-name="Rectángulo 3690" transform="translate(14.4 22.004)" fill="#616161" stroke="#616161" stroke-width="1">
    <rect width="16.8" height="1.688" rx="0.844" stroke="none"/>
    <rect x="0.5" y="0.5" width="15.8" height="0.688" rx="0.344" fill="none"/>
  </g>
</svg>
