<?xml version="1.0" encoding="utf-8"?>
<!-- Generator: Adobe Illustrator 24.2.3, SVG Export Plug-In . SVG Version: 6.00 Build 0)  -->
<svg version="1.1" id="Capa_1" xmlns="http://www.w3.org/2000/svg" xmlns:xlink="http://www.w3.org/1999/xlink" x="0px" y="0px"
	 viewBox="0 0 32.1 39.9" style="enable-background:new 0 0 32.1 39.9;" xml:space="preserve">
<style type="text/css">
	.st0{fill:#FFFFFF;}
</style>
<g id="registrarme" transform="translate(-454 -20)">
	<path id="Iconos_cintas_ingreso_Registro" class="st0" d="M468.1,37.6c4.5,0,8.1-3.7,8.1-8.1v-1.3c0-4.5-3.7-8.1-8.2-8
		c-4.4,0-8,3.6-8,8v1.3C459.9,34,463.6,37.6,468.1,37.6z M461.5,28.2c0-3.6,2.9-6.5,6.5-6.5s6.5,2.9,6.5,6.5v1.3
		c0,3.6-2.9,6.5-6.5,6.5s-6.5-2.9-6.5-6.5V28.2z M478.1,43.3c-5.4-5.6-14.3-5.7-19.9-0.3c-2.7,2.6-4.2,6.3-4.2,10.1
		c0,0.4,0,0.9,0.1,1.3l0,0v0.1l0,0.1l0,0.1c0,0,0,0,0,0.1c0,0,0,0.1,0.1,0.1c0,0,0.1,0.1,0.1,0.1c5.5,4.6,12.9,6.2,19.7,4.2
		c4.1,2.1,9.1,0.4,11.2-3.7c2.1-4.1,0.4-9.1-3.7-11.2C480.4,43.6,479.3,43.3,478.1,43.3L478.1,43.3z M455.7,53.9L455.7,53.9
		c0-0.3,0-0.6,0-0.8c0-6.9,5.6-12.5,12.5-12.5c2.9,0,5.6,1,7.9,2.8c-4.5,0.9-7.4,5.4-6.4,9.9c0.4,1.8,1.3,3.4,2.7,4.6
		C466.4,59.2,460.3,57.7,455.7,53.9z M471.1,51.7c0-3.7,3-6.7,6.8-6.7c3.7,0,6.7,3,6.7,6.8s-3,6.7-6.8,6.7
		C474.2,58.5,471.1,55.4,471.1,51.7L471.1,51.7z"/>
	<path id="Exclusión_6" class="st0" d="M475.4,56.7c-0.2-0.1-0.3-0.2-0.4-0.3c-0.2-0.2-0.3-0.4-0.2-0.7c0.1-0.5,0.4-1,0.9-1.3
		c0.6-0.5,1-1.2,1.3-1.9c-0.7-0.8-1.1-1.9-1.3-3c0.1-0.8,0.5-1.5,1.1-2c0.4-0.5,1.1-0.7,1.7-0.6l0,0c0.9,0.1,1.7,0.6,2.2,1.3
		c0.2,0.4,0.2,0.8,0.1,1.2c-0.4,1.1-1,2.1-1.8,3c0.4,0.7,0.9,1.4,1.5,2.1c0.5,0.5,0.6,0.9,0.6,1.3c-0.1,0.3-0.3,0.5-0.5,0.7
		c-0.1,0.1-0.3,0.1-0.4,0.1c-0.3,0-0.5-0.4-0.8-0.8c-0.1-0.2-0.2-0.4-0.4-0.6c-0.4-0.5-0.7-1-1-1.6c0,0,0,0,0,0
		c-0.2,0.2-0.6,0.9-1.3,1.8l-0.2,0.3C476,56.4,475.7,56.8,475.4,56.7z M478.3,48.1c-0.3-0.1-0.7,0.1-0.9,0.3
		c-0.3,0.3-0.4,0.8-0.3,1.2c0.2,0.7,0.5,1.4,1,2c0,0,1-1.4,1.2-1.9c0.1-0.3,0.1-0.6,0-0.9c-0.2-0.4-0.5-0.6-0.9-0.7
		C478.3,48.1,478.3,48.1,478.3,48.1L478.3,48.1z"/>
</g>
</svg>
