<svg xmlns="http://www.w3.org/2000/svg" width="32.088" height="39.912" viewBox="0 0 32.088 39.912">
  <g id="registrarme" transform="translate(-454 -20)">
    <path id="Iconos_cintas_ingreso_Registro" data-name="Iconos cintas ingreso_Registro" d="M35.857,27.614a8.142,8.142,0,0,0,8.132-8.147V18.122a8.132,8.132,0,0,0-16.263,0v1.346A8.142,8.142,0,0,0,35.857,27.614Zm-6.531-9.473a6.531,6.531,0,1,1,13.062,0v1.326a6.531,6.531,0,0,1-13.062,0ZM45.918,33.268A14.055,14.055,0,0,0,21.8,43.075a9.334,9.334,0,0,0,.06,1.291l.04.03v.09l.03.07.03.075a.427.427,0,0,0,.035.05.5.5,0,0,0,.055.085.827.827,0,0,0,.09.095,21.309,21.309,0,0,0,19.7,4.163,8.321,8.321,0,1,0,4.1-15.755ZM23.453,43.9h0c0-.274-.04-.553-.04-.823a12.464,12.464,0,0,1,20.341-9.647,8.311,8.311,0,0,0-3.669,14.458A19.683,19.683,0,0,1,23.453,43.9Zm22.071,4.387a6.741,6.741,0,1,1,0,.02Z" transform="translate(432.205 10.01)" fill="#fff"/>
    <path id="Exclusión_6" data-name="Exclusión 6" d="M-2735.307-415.092a.777.777,0,0,1-.467-.242.85.85,0,0,1-.323-.577,2.19,2.19,0,0,1,.627-1.335,5.538,5.538,0,0,0,.959-1.939,5.443,5.443,0,0,1-1.638-2.585,3.035,3.035,0,0,1,.7-2.067,2,2,0,0,1,1.514-.829h.03a2.88,2.88,0,0,1,2.236.928,1.46,1.46,0,0,1,.269,1.14,10.585,10.585,0,0,1-1.241,3.05,15.459,15.459,0,0,0,1.709,1.758c.5.419.739.787.738,1.122a.9.9,0,0,1-.387.687.577.577,0,0,1-.367.161c-.278,0-.524-.3-.836-.669-.123-.147-.26-.312-.412-.474a17.6,17.6,0,0,1-1.146-1.344.059.059,0,0,1-.006.016c-.108.239-.418.9-.954,1.871l-.156.286C-2734.821-415.462-2735.022-415.092-2735.307-415.092Zm1.371-8.518a.889.889,0,0,0-.794.422,1.444,1.444,0,0,0-.108,1.185,6.841,6.841,0,0,0,1.194,1.732c0-.011.726-1.5.866-1.99a1.074,1.074,0,0,0-.117-.831,1.134,1.134,0,0,0-.937-.513C-2733.867-423.609-2733.9-423.61-2733.936-423.61Z" transform="translate(3112.404 893.59) rotate(9)" fill="#fff"/>
  </g>
</svg>
