<svg xmlns="http://www.w3.org/2000/svg" width="41.593" height="48" viewBox="0 0 41.593 48">
  <g id="revista-rosa" transform="translate(0 -0.001)">
    <path id="Trazado_24822" data-name="Trazado 24822" d="M40.186,3.938H35.514V1.931A1.406,1.406,0,0,0,33.292.786a12.48,12.48,0,0,1-4.4,1.572V1.407A1.407,1.407,0,0,0,26.467.442c-1.181,1.251-3.96,2.173-8.259,2.74a134.97,134.97,0,0,1-16.8.763A1.406,1.406,0,0,0,0,5.352V46.595A1.406,1.406,0,0,0,1.406,48h38.78a1.406,1.406,0,0,0,1.406-1.406V5.344a1.406,1.406,0,0,0-1.406-1.406ZM26.083,42.4c-1.346,1.137-4.212,1.926-8.536,2.345-4.223.409-9.316.442-14.735.444V6.755c12.3-.055,19.4-.846,23.271-2.689Zm6.618.36A14.625,14.625,0,0,1,28.373,44.1c.06-.063.119-.127.176-.192a1.405,1.405,0,0,0,.347-.925V5.228A24.208,24.208,0,0,0,32.7,4.205Zm6.079,2.429H34.112a6.765,6.765,0,0,0,.866-.575,1.406,1.406,0,0,0,.536-1.1V6.751H38.78Zm0,0" transform="translate(0 0)" fill="#fff"/>
    <path id="Trazado_24823" data-name="Trazado 24823" d="M158.554,83.121a1.4,1.4,0,0,0,.195-.014,30.214,30.214,0,0,0,7.429-1.884,1.406,1.406,0,0,0-1.074-2.6,27.491,27.491,0,0,1-6.741,1.7,1.406,1.406,0,0,0,.191,2.8Zm0,0" transform="translate(-142.417 -71.155)" fill="#fff"/>
    <path id="Trazado_24824" data-name="Trazado 24824" d="M158.34,145.8a1.462,1.462,0,0,0,.194-.013,30.213,30.213,0,0,0,7.471-1.9,1.406,1.406,0,0,0-1.077-2.6A27.447,27.447,0,0,1,158.15,143a1.406,1.406,0,0,0,.19,2.8Zm0,0" transform="translate(-142.223 -127.951)" fill="#fff"/>
    <path id="Trazado_24825" data-name="Trazado 24825" d="M164.931,204.15a27.5,27.5,0,0,1-6.758,1.7,1.406,1.406,0,0,0,.19,2.8,1.458,1.458,0,0,0,.194-.013A30.243,30.243,0,0,0,166,206.749a1.406,1.406,0,0,0-1.074-2.6Zm0,0" transform="translate(-142.244 -184.913)" fill="#fff"/>
    <path id="Trazado_24826" data-name="Trazado 24826" d="M47.492,271.924h.01c6.343-.044,12.919-.377,18.047-2.5a1.406,1.406,0,1,0-1.077-2.6c-4.681,1.941-10.931,2.247-16.989,2.288a1.406,1.406,0,0,0,.01,2.813Zm0,0" transform="translate(-41.765 -241.71)" fill="#fff"/>
    <path id="Trazado_24827" data-name="Trazado 24827" d="M47.492,335.259h.01c6.274-.043,12.783-.368,17.892-2.439a1.406,1.406,0,0,0-1.057-2.606c-4.67,1.893-10.86,2.192-16.854,2.233a1.406,1.406,0,0,0,.009,2.813Zm0,0" transform="translate(-41.766 -299.161)" fill="#fff"/>
    <path id="Trazado_24828" data-name="Trazado 24828" d="M64.474,392.347c-4.681,1.941-10.931,2.247-16.989,2.288a1.406,1.406,0,0,0,.01,2.813h.01c6.343-.044,12.92-.377,18.047-2.5a1.406,1.406,0,1,0-1.077-2.6Zm0,0" transform="translate(-41.769 -355.466)" fill="#fff"/>
    <path id="Exclusión_1" data-name="Exclusión 1" d="M-2735.022-413.092a1.081,1.081,0,0,1-.624-.292,1,1,0,0,1-.431-.7,2.544,2.544,0,0,1,.838-1.614,6.438,6.438,0,0,0,1.281-2.344c-.21-.177-2.039-1.764-2.187-3.125a3.451,3.451,0,0,1,.939-2.5,2.752,2.752,0,0,1,2.021-1h.04a4.044,4.044,0,0,1,2.986,1.122,1.637,1.637,0,0,1,.359,1.379,12.185,12.185,0,0,1-1.657,3.687,19.664,19.664,0,0,0,2.281,2.125c.664.507.987.951.986,1.357a1.071,1.071,0,0,1-.517.83.813.813,0,0,1-.49.194c-.371,0-.7-.357-1.117-.809-.164-.178-.347-.377-.55-.573a21.9,21.9,0,0,1-1.531-1.625.081.081,0,0,1-.009.02c-.145.289-.558,1.087-1.273,2.262-.074.122-.143.237-.209.346C-2734.373-413.539-2734.641-413.092-2735.022-413.092Zm1.83-10.3a1.217,1.217,0,0,0-1.06.511,1.6,1.6,0,0,0-.144,1.432,8.333,8.333,0,0,0,1.594,2.094,25.813,25.813,0,0,0,1.157-2.406,1.193,1.193,0,0,0-.156-1,1.548,1.548,0,0,0-1.251-.62C-2733.1-423.388-2733.146-423.39-2733.192-423.39Z" transform="translate(2741.582 433.531)" fill="#fff"/>
  </g>
</svg>
