<svg id="tiempo_de_entrega" data-name="tiempo de entrega" xmlns="http://www.w3.org/2000/svg" width="32.29" height="32.29" viewBox="0 0 32.29 32.29">
  <path id="Trazado_16266" data-name="Trazado 16266" d="M16.145,32.29A16.145,16.145,0,1,1,32.29,16.145,16.145,16.145,0,0,1,16.145,32.29Zm0-30.272A14.127,14.127,0,1,0,30.272,16.145,14.127,14.127,0,0,0,16.145,2.018Zm0,0" fill="#616161"/>
  <path id="Trazado_16267" data-name="Trazado 16267" d="M248.073,119.832a1,1,0,0,1-.713-.3l-7.063-7.063a1.009,1.009,0,0,1-.3-.713v-9.418a1.009,1.009,0,0,1,2.018,0v9l6.768,6.768a1.01,1.01,0,0,1-.713,1.723Zm0,0" transform="translate(-224.864 -94.941)" fill="#fac2bf"/>
</svg>
